<svg width="inherit" height="inherit" viewBox="0 0 20 20" fill="none" xmlns="http://www.w3.org/2000/svg">
    <path fill-rule="evenodd" clip-rule="evenodd" d="M8 3.99999C6.93913 3.99999 5.92172 4.42142 5.17157 5.17156C4.42143 5.92171 4 6.93912 4 7.99999C4 9.06085 4.42143 10.0783 5.17157 10.8284C5.92172 11.5786 6.93913 12 8 12C9.06086 12 10.0783 11.5786 10.8284 10.8284C11.5786 10.0783 12 9.06085 12 7.99999C12 6.93912 11.5786 5.92171 10.8284 5.17156C10.0783 4.42142 9.06086 3.99999 8 3.99999ZM2 7.99999C1.99988 7.05569 2.22264 6.1247 2.65017 5.28273C3.0777 4.44076 3.69792 3.71159 4.4604 3.15451C5.22287 2.59744 6.10606 2.2282 7.03815 2.07682C7.97023 1.92544 8.92488 1.9962 9.82446 2.28334C10.724 2.57048 11.5432 3.06589 12.2152 3.72928C12.8872 4.39268 13.3931 5.20532 13.6919 6.10112C13.9906 6.99692 14.0737 7.95058 13.9343 8.88454C13.795 9.8185 13.4372 10.7064 12.89 11.476L17.707 16.293C17.8892 16.4816 17.99 16.7342 17.9877 16.9964C17.9854 17.2586 17.8802 17.5094 17.6948 17.6948C17.5094 17.8802 17.2586 17.9854 16.9964 17.9877C16.7342 17.9899 16.4816 17.8891 16.293 17.707L11.477 12.891C10.5794 13.5293 9.52335 13.9081 8.42467 13.9861C7.326 14.0641 6.22707 13.8381 5.2483 13.333C4.26953 12.8278 3.44869 12.063 2.87572 11.1223C2.30276 10.1817 1.99979 9.10142 2 7.99999Z" fill="#727477"/>
</svg>
